<mxfile host="app.diagrams.net" agent="Mozilla/5.0 (Windows NT 10.0; Win64; x64) AppleWebKit/537.36 (KHTML, like Gecko) Chrome/134.0.0.0 Safari/537.36" version="26.1.1">
  <diagram name="Page-1" id="ad52d381-51e7-2e0d-a935-2d0ddd2fd229">
    <mxGraphModel grid="1" page="1" gridSize="10" guides="1" tooltips="1" connect="1" arrows="1" fold="1" pageScale="1" pageWidth="1100" pageHeight="850" background="none" math="0" shadow="0">
      <root>
        <mxCell id="0" />
        <mxCell id="1" parent="0" />
        <mxCell id="2c924340bb9dbf6c-4" value="Root node" style="ellipse;whiteSpace=wrap;html=1;rounded=1;shadow=1;comic=0;labelBackgroundColor=none;strokeWidth=2;fontFamily=Verdana;fontSize=12;align=center;" vertex="1" parent="1">
          <mxGeometry x="40" y="199" width="120" height="120" as="geometry" />
        </mxCell>
        <mxCell id="2c924340bb9dbf6c-24" value="Condition" style="rhombus;whiteSpace=wrap;html=1;rounded=0;shadow=1;comic=0;labelBackgroundColor=none;strokeWidth=2;fontFamily=Verdana;fontSize=12;align=center;" vertex="1" parent="1">
          <mxGeometry x="30" y="460" width="80" height="80" as="geometry" />
        </mxCell>
        <mxCell id="2c924340bb9dbf6c-25" value="&lt;span&gt;Process 3&lt;/span&gt;" style="rounded=1;whiteSpace=wrap;html=1;shadow=1;comic=0;labelBackgroundColor=none;strokeWidth=2;fontFamily=Verdana;fontSize=12;align=center;" vertex="1" parent="1">
          <mxGeometry x="20" y="560" width="120" height="60" as="geometry" />
        </mxCell>
        <mxCell id="2c924340bb9dbf6c-70" value="&lt;span&gt;Topic 14&lt;/span&gt;" style="whiteSpace=wrap;html=1;rounded=1;shadow=1;comic=0;labelBackgroundColor=none;strokeWidth=2;fontFamily=Verdana;fontSize=12;align=center;arcSize=50;" vertex="1" parent="1">
          <mxGeometry x="130" y="490" width="100" height="20" as="geometry" />
        </mxCell>
        <mxCell id="2c924340bb9dbf6c-75" value="&lt;span style=&quot;background-color: light-dark(#ffffff, var(--ge-dark-color, #121212));&quot;&gt;Markdown&lt;br&gt;(Export)&lt;/span&gt;" style="edgeStyle=none;rounded=1;html=1;labelBackgroundColor=none;startArrow=none;startFill=0;startSize=5;endArrow=classicThin;endFill=1;endSize=5;jettySize=auto;orthogonalLoop=1;strokeColor=#B3B3B3;strokeWidth=3;fontFamily=Verdana;fontSize=12;entryX=0.5;entryY=0;entryDx=0;entryDy=0;" edge="1" parent="1" source="YXH60tTdsBJazm-vWvEj-7" target="YXH60tTdsBJazm-vWvEj-8">
          <mxGeometry x="0.025" y="5" relative="1" as="geometry">
            <mxPoint as="offset" />
            <mxPoint x="580" y="180" as="targetPoint" />
          </mxGeometry>
        </mxCell>
        <mxCell id="YXH60tTdsBJazm-vWvEj-3" value="&lt;span&gt;&lt;font style=&quot;font-size: 16px;&quot;&gt;Notion&lt;/font&gt;&lt;/span&gt;" style="ellipse;whiteSpace=wrap;html=1;rounded=1;shadow=1;comic=0;labelBackgroundColor=none;strokeWidth=2;fontFamily=Verdana;fontSize=12;align=center;fillColor=#fff2cc;strokeColor=#d6b656;" vertex="1" parent="1">
          <mxGeometry x="680" y="340" width="120" height="80" as="geometry" />
        </mxCell>
        <mxCell id="YXH60tTdsBJazm-vWvEj-5" value="&lt;span&gt;&lt;font style=&quot;font-size: 16px;&quot;&gt;Zotero&lt;/font&gt;&lt;/span&gt;" style="ellipse;whiteSpace=wrap;html=1;rounded=1;shadow=1;comic=0;labelBackgroundColor=none;strokeWidth=2;fontFamily=Verdana;fontSize=12;align=center;fillColor=#fff2cc;strokeColor=#d6b656;" vertex="1" parent="1">
          <mxGeometry x="240" y="600" width="120" height="80" as="geometry" />
        </mxCell>
        <mxCell id="YXH60tTdsBJazm-vWvEj-6" value="&lt;span&gt;&lt;font style=&quot;font-size: 16px;&quot;&gt;DocFetcher&lt;/font&gt;&lt;/span&gt;" style="ellipse;whiteSpace=wrap;html=1;rounded=1;shadow=1;comic=0;labelBackgroundColor=none;strokeWidth=2;fontFamily=Verdana;fontSize=12;align=center;fillColor=#fff2cc;strokeColor=#d6b656;" vertex="1" parent="1">
          <mxGeometry x="640" y="600" width="120" height="80" as="geometry" />
        </mxCell>
        <mxCell id="YXH60tTdsBJazm-vWvEj-7" value="&lt;span&gt;&lt;font style=&quot;font-size: 16px;&quot;&gt;Perplexity&lt;/font&gt;&lt;/span&gt;" style="ellipse;whiteSpace=wrap;html=1;rounded=1;shadow=1;comic=0;labelBackgroundColor=none;strokeWidth=2;fontFamily=Verdana;fontSize=12;align=center;fillColor=#fff2cc;strokeColor=#d6b656;" vertex="1" parent="1">
          <mxGeometry x="440" y="40" width="120" height="80" as="geometry" />
        </mxCell>
        <mxCell id="YXH60tTdsBJazm-vWvEj-8" value="OneDrive&lt;br&gt;Markdown&lt;br&gt;[AI_Transcripts]" style="whiteSpace=wrap;html=1;rounded=1;shadow=1;comic=0;labelBackgroundColor=none;strokeWidth=2;fontFamily=Verdana;fontSize=12;align=center;arcSize=50;" vertex="1" parent="1">
          <mxGeometry x="440" y="200" width="120" height="60" as="geometry" />
        </mxCell>
        <mxCell id="YXH60tTdsBJazm-vWvEj-12" value="OneDrive&lt;br&gt;PDF&lt;br&gt;[AI_Transcripts]" style="whiteSpace=wrap;html=1;rounded=1;shadow=1;comic=0;labelBackgroundColor=none;strokeWidth=2;fontFamily=Verdana;fontSize=12;align=center;arcSize=50;" vertex="1" parent="1">
          <mxGeometry x="440" y="500" width="120" height="60" as="geometry" />
        </mxCell>
        <mxCell id="YXH60tTdsBJazm-vWvEj-13" value="Google Drive&lt;br&gt;DrawIO&lt;br&gt;[Diagrams]" style="whiteSpace=wrap;html=1;rounded=1;shadow=1;comic=0;labelBackgroundColor=none;strokeWidth=2;fontFamily=Verdana;fontSize=12;align=center;arcSize=50;fillColor=default;strokeColor=light-dark(#b85450, #ededed);" vertex="1" parent="1">
          <mxGeometry x="680" y="200" width="120" height="60" as="geometry" />
        </mxCell>
        <mxCell id="YXH60tTdsBJazm-vWvEj-14" value="&lt;span&gt;&lt;font style=&quot;font-size: 16px;&quot;&gt;OpenAI&lt;/font&gt;&lt;/span&gt;" style="ellipse;whiteSpace=wrap;html=1;rounded=1;shadow=1;comic=0;labelBackgroundColor=none;strokeWidth=2;fontFamily=Verdana;fontSize=12;align=center;fillColor=#fff2cc;strokeColor=#d6b656;" vertex="1" parent="1">
          <mxGeometry x="40" y="360" width="120" height="80" as="geometry" />
        </mxCell>
        <mxCell id="YXH60tTdsBJazm-vWvEj-15" value="&lt;span&gt;&lt;font style=&quot;font-size: 16px;&quot;&gt;Adobe&lt;br&gt;Acrobat&lt;/font&gt;&lt;/span&gt;" style="ellipse;whiteSpace=wrap;html=1;rounded=1;shadow=1;comic=0;labelBackgroundColor=none;strokeWidth=2;fontFamily=Verdana;fontSize=12;align=center;fillColor=#fff2cc;strokeColor=#d6b656;" vertex="1" parent="1">
          <mxGeometry x="440" y="640" width="120" height="80" as="geometry" />
        </mxCell>
        <mxCell id="YXH60tTdsBJazm-vWvEj-16" value="&lt;span&gt;&lt;font style=&quot;font-size: 16px;&quot;&gt;Notepad++&lt;/font&gt;&lt;/span&gt;" style="ellipse;whiteSpace=wrap;html=1;rounded=1;shadow=1;comic=0;labelBackgroundColor=none;strokeWidth=2;fontFamily=Verdana;fontSize=12;align=center;fillColor=#fff2cc;strokeColor=#d6b656;" vertex="1" parent="1">
          <mxGeometry x="440" y="340" width="120" height="80" as="geometry" />
        </mxCell>
        <mxCell id="YXH60tTdsBJazm-vWvEj-18" value="&lt;span style=&quot;background-color: light-dark(#ffffff, var(--ge-dark-color, #121212));&quot;&gt;Markdown&lt;br&gt;(Import)&lt;/span&gt;" style="edgeStyle=none;rounded=1;html=1;labelBackgroundColor=none;startArrow=none;startFill=0;startSize=5;endArrow=classicThin;endFill=1;endSize=5;jettySize=auto;orthogonalLoop=1;strokeColor=#B3B3B3;strokeWidth=3;fontFamily=Verdana;fontSize=12;entryX=0;entryY=0;entryDx=0;entryDy=0;exitX=0.75;exitY=1;exitDx=0;exitDy=0;" edge="1" parent="1" source="YXH60tTdsBJazm-vWvEj-8" target="YXH60tTdsBJazm-vWvEj-3">
          <mxGeometry x="0.0224" y="5" relative="1" as="geometry">
            <mxPoint as="offset" />
            <mxPoint x="470" y="310" as="sourcePoint" />
            <mxPoint x="420" y="332" as="targetPoint" />
          </mxGeometry>
        </mxCell>
        <mxCell id="YXH60tTdsBJazm-vWvEj-19" value="&lt;span style=&quot;background-color: light-dark(#ffffff, var(--ge-dark-color, #121212));&quot;&gt;Markdown&lt;br&gt;(Open)&lt;/span&gt;" style="edgeStyle=none;rounded=1;html=1;labelBackgroundColor=none;startArrow=none;startFill=0;startSize=5;endArrow=classicThin;endFill=1;endSize=5;jettySize=auto;orthogonalLoop=1;strokeColor=#B3B3B3;strokeWidth=3;fontFamily=Verdana;fontSize=12;exitX=0.5;exitY=1;exitDx=0;exitDy=0;" edge="1" parent="1" source="YXH60tTdsBJazm-vWvEj-8" target="YXH60tTdsBJazm-vWvEj-16">
          <mxGeometry x="0.0224" y="5" relative="1" as="geometry">
            <mxPoint as="offset" />
            <mxPoint x="360" y="270" as="sourcePoint" />
            <mxPoint x="382" y="126" as="targetPoint" />
          </mxGeometry>
        </mxCell>
        <mxCell id="YXH60tTdsBJazm-vWvEj-20" value="&lt;span style=&quot;background-color: light-dark(#ffffff, var(--ge-dark-color, #121212));&quot;&gt;PDF&lt;br&gt;(Export)&lt;/span&gt;" style="edgeStyle=none;rounded=1;html=1;labelBackgroundColor=none;startArrow=none;startFill=0;startSize=5;endArrow=classicThin;endFill=1;endSize=5;jettySize=auto;orthogonalLoop=1;strokeColor=#B3B3B3;strokeWidth=3;fontFamily=Verdana;fontSize=12;exitX=0.5;exitY=1;exitDx=0;exitDy=0;entryX=0.5;entryY=0;entryDx=0;entryDy=0;" edge="1" parent="1" source="YXH60tTdsBJazm-vWvEj-16" target="YXH60tTdsBJazm-vWvEj-12">
          <mxGeometry relative="1" as="geometry">
            <mxPoint as="offset" />
            <mxPoint x="708" y="238" as="sourcePoint" />
            <mxPoint x="500" y="490" as="targetPoint" />
          </mxGeometry>
        </mxCell>
        <mxCell id="YXH60tTdsBJazm-vWvEj-21" value="&lt;span&gt;&lt;font style=&quot;font-size: 16px;&quot;&gt;Draw.io&lt;/font&gt;&lt;/span&gt;" style="ellipse;whiteSpace=wrap;html=1;rounded=1;shadow=1;comic=0;labelBackgroundColor=none;strokeWidth=2;fontFamily=Verdana;fontSize=12;align=center;fillColor=#fff2cc;strokeColor=#d6b656;" vertex="1" parent="1">
          <mxGeometry x="680" y="40" width="120" height="80" as="geometry" />
        </mxCell>
        <mxCell id="YXH60tTdsBJazm-vWvEj-22" value="&lt;span style=&quot;background-color: light-dark(#ffffff, var(--ge-dark-color, #121212));&quot;&gt;DrawIO&lt;br&gt;(Save)&lt;/span&gt;" style="edgeStyle=none;rounded=1;html=1;labelBackgroundColor=none;startArrow=none;startFill=0;startSize=5;endArrow=classicThin;endFill=1;endSize=5;jettySize=auto;orthogonalLoop=1;strokeColor=#b85450;strokeWidth=3;fontFamily=Verdana;fontSize=12;entryX=0.5;entryY=0;entryDx=0;entryDy=0;exitX=0.5;exitY=1;exitDx=0;exitDy=0;fillColor=#f8cecc;" edge="1" parent="1" source="YXH60tTdsBJazm-vWvEj-21" target="YXH60tTdsBJazm-vWvEj-13">
          <mxGeometry x="0.025" y="5" relative="1" as="geometry">
            <mxPoint as="offset" />
            <mxPoint x="510" y="130" as="sourcePoint" />
            <mxPoint x="510" y="210" as="targetPoint" />
          </mxGeometry>
        </mxCell>
        <mxCell id="YXH60tTdsBJazm-vWvEj-25" value="&lt;span style=&quot;background-color: light-dark(#ffffff, var(--ge-dark-color, #121212));&quot;&gt;PDF&lt;br&gt;(Index)&lt;/span&gt;" style="edgeStyle=none;rounded=1;html=1;labelBackgroundColor=none;startArrow=none;startFill=0;startSize=5;endArrow=classicThin;endFill=1;endSize=5;jettySize=auto;orthogonalLoop=1;strokeColor=#B3B3B3;strokeWidth=3;fontFamily=Verdana;fontSize=12;exitX=0.75;exitY=1;exitDx=0;exitDy=0;" edge="1" parent="1" source="YXH60tTdsBJazm-vWvEj-12" target="YXH60tTdsBJazm-vWvEj-6">
          <mxGeometry x="-0.1429" relative="1" as="geometry">
            <mxPoint as="offset" />
            <mxPoint x="500" y="600.0000000000002" as="sourcePoint" />
            <mxPoint x="450" y="600" as="targetPoint" />
          </mxGeometry>
        </mxCell>
        <mxCell id="YXH60tTdsBJazm-vWvEj-26" value="&lt;span style=&quot;background-color: light-dark(#ffffff, var(--ge-dark-color, #121212));&quot;&gt;PDF&lt;br&gt;(Open)&lt;/span&gt;" style="edgeStyle=none;rounded=1;html=1;labelBackgroundColor=none;startArrow=none;startFill=0;startSize=5;endArrow=classicThin;endFill=1;endSize=5;jettySize=auto;orthogonalLoop=1;strokeColor=#B3B3B3;strokeWidth=3;fontFamily=Verdana;fontSize=12;entryX=0.5;entryY=0;entryDx=0;entryDy=0;exitX=0.5;exitY=1;exitDx=0;exitDy=0;" edge="1" parent="1" source="YXH60tTdsBJazm-vWvEj-12" target="YXH60tTdsBJazm-vWvEj-15">
          <mxGeometry x="-0.1429" relative="1" as="geometry">
            <mxPoint as="offset" />
            <mxPoint x="529.9999999999995" y="600.0000000000002" as="sourcePoint" />
            <mxPoint x="510" y="690" as="targetPoint" />
          </mxGeometry>
        </mxCell>
        <mxCell id="YXH60tTdsBJazm-vWvEj-28" value="&lt;span style=&quot;background-color: light-dark(#ffffff, var(--ge-dark-color, #121212));&quot;&gt;DrawIO&lt;br&gt;(Embed)&lt;/span&gt;" style="edgeStyle=none;rounded=1;html=1;labelBackgroundColor=none;startArrow=none;startFill=0;startSize=5;endArrow=classicThin;endFill=1;endSize=5;jettySize=auto;orthogonalLoop=1;strokeColor=#b85450;strokeWidth=3;fontFamily=Verdana;fontSize=12;entryX=0.5;entryY=0;entryDx=0;entryDy=0;exitX=0.5;exitY=1;exitDx=0;exitDy=0;fillColor=#f8cecc;" edge="1" parent="1" source="YXH60tTdsBJazm-vWvEj-13" target="YXH60tTdsBJazm-vWvEj-3">
          <mxGeometry x="0.025" y="5" relative="1" as="geometry">
            <mxPoint as="offset" />
            <mxPoint x="790" y="130" as="sourcePoint" />
            <mxPoint x="790" y="210" as="targetPoint" />
          </mxGeometry>
        </mxCell>
        <mxCell id="YXH60tTdsBJazm-vWvEj-30" value="&lt;span style=&quot;background-color: light-dark(#ffffff, var(--ge-dark-color, #121212));&quot;&gt;PDF&lt;br&gt;(Open)&lt;/span&gt;" style="edgeStyle=none;rounded=1;html=1;labelBackgroundColor=none;startArrow=none;startFill=0;startSize=5;endArrow=classicThin;endFill=1;endSize=5;jettySize=auto;orthogonalLoop=1;strokeColor=#B3B3B3;strokeWidth=3;fontFamily=Verdana;fontSize=12;exitX=0;exitY=0.5;exitDx=0;exitDy=0;entryX=1;entryY=0.5;entryDx=0;entryDy=0;dashed=1;dashPattern=1 1;" edge="1" parent="1" source="YXH60tTdsBJazm-vWvEj-6" target="YXH60tTdsBJazm-vWvEj-15">
          <mxGeometry x="-0.1429" relative="1" as="geometry">
            <mxPoint as="offset" />
            <mxPoint x="570" y="580" as="sourcePoint" />
            <mxPoint x="650" y="650" as="targetPoint" />
          </mxGeometry>
        </mxCell>
        <mxCell id="YXH60tTdsBJazm-vWvEj-31" value="&lt;span style=&quot;background-color: light-dark(#ffffff, var(--ge-dark-color, #121212));&quot;&gt;PDF&lt;br&gt;(Index)&lt;/span&gt;" style="edgeStyle=none;rounded=1;html=1;labelBackgroundColor=none;startArrow=none;startFill=0;startSize=5;endArrow=classicThin;endFill=1;endSize=5;jettySize=auto;orthogonalLoop=1;strokeColor=#B3B3B3;strokeWidth=3;fontFamily=Verdana;fontSize=12;entryX=1;entryY=0;entryDx=0;entryDy=0;exitX=0.25;exitY=1;exitDx=0;exitDy=0;" edge="1" parent="1" source="YXH60tTdsBJazm-vWvEj-12" target="YXH60tTdsBJazm-vWvEj-5">
          <mxGeometry x="-0.1429" relative="1" as="geometry">
            <mxPoint as="offset" />
            <mxPoint x="470.0000000000002" y="600.0000000000002" as="sourcePoint" />
            <mxPoint x="650" y="650" as="targetPoint" />
          </mxGeometry>
        </mxCell>
        <mxCell id="YXH60tTdsBJazm-vWvEj-33" value="&lt;font style=&quot;font-size: 16px;&quot;&gt;&lt;b&gt;AI Transcripts&lt;/b&gt;&lt;/font&gt;" style="text;html=1;align=center;verticalAlign=middle;whiteSpace=wrap;rounded=0;" vertex="1" parent="1">
          <mxGeometry x="320" y="210" width="80" height="40" as="geometry" />
        </mxCell>
        <mxCell id="YXH60tTdsBJazm-vWvEj-35" value="&lt;font style=&quot;font-size: 16px;&quot;&gt;&lt;b&gt;Embedded&lt;br&gt;Diagrams&lt;/b&gt;&lt;/font&gt;" style="text;html=1;align=center;verticalAlign=middle;whiteSpace=wrap;rounded=0;fontColor=light-dark(#b85450, #ff9090);" vertex="1" parent="1">
          <mxGeometry x="840" y="210" width="80" height="40" as="geometry" />
        </mxCell>
      </root>
    </mxGraphModel>
  </diagram>
</mxfile>
